<svg width="27" height="27" viewBox="0 0 27 27" fill="none" xmlns="http://www.w3.org/2000/svg">
<path d="M14.625 18L19.125 13.5M19.125 13.5L14.625 9M19.125 13.5H3.375M9 18V19.125C9 20.0201 9.35558 20.8786 9.98851 21.5115C10.6214 22.1444 11.4799 22.5 12.375 22.5H20.25C21.1451 22.5 22.0036 22.1444 22.6365 21.5115C23.2694 20.8786 23.625 20.0201 23.625 19.125V7.875C23.625 6.97989 23.2694 6.12145 22.6365 5.48851C22.0036 4.85558 21.1451 4.5 20.25 4.5H12.375C11.4799 4.5 10.6214 4.85558 9.98851 5.48851C9.35558 6.12145 9 6.97989 9 7.875V9" stroke="white" stroke-width="2" stroke-linecap="round" stroke-linejoin="round"/>
</svg>
