<svg width="22" height="28" viewBox="0 0 22 28" fill="none" xmlns="http://www.w3.org/2000/svg">
<path d="M21.2492 27.657H18.6571V25.065C18.6571 22.9176 16.9164 21.1769 14.769 21.1769H6.99284C4.84551 21.1769 3.10475 22.9176 3.10475 25.065V27.657H0.512695V25.065C0.512695 21.4861 3.41396 18.5848 6.99284 18.5848H14.769C18.3479 18.5848 21.2492 21.4861 21.2492 25.065V27.657ZM10.8809 15.9928C6.58626 15.9928 3.10475 12.5113 3.10475 8.2166C3.10475 3.92194 6.58626 0.44043 10.8809 0.44043C15.1756 0.44043 18.6571 3.92194 18.6571 8.2166C18.6571 12.5113 15.1756 15.9928 10.8809 15.9928ZM10.8809 13.4007C13.744 13.4007 16.065 11.0797 16.065 8.2166C16.065 5.35349 13.744 3.03249 10.8809 3.03249C8.01782 3.03249 5.69681 5.35349 5.69681 8.2166C5.69681 11.0797 8.01782 13.4007 10.8809 13.4007Z" fill="#1C1C1C"/>
</svg>
