<svg width="32" height="32" viewBox="0 0 32 32" fill="none" xmlns="http://www.w3.org/2000/svg">
<path d="M25.9208 28.5126H23.3287V25.9206C23.3287 23.7732 21.588 22.0325 19.4406 22.0325H11.6645C9.51715 22.0325 7.77638 23.7732 7.77638 25.9206V28.5126H5.18433V25.9206C5.18433 22.3417 8.08559 19.4404 11.6645 19.4404H19.4406C23.0195 19.4404 25.9208 22.3417 25.9208 25.9206V28.5126ZM15.5526 16.8484C11.2579 16.8484 7.77638 13.3668 7.77638 9.07219C7.77638 4.77753 11.2579 1.29602 15.5526 1.29602C19.8472 1.29602 23.3287 4.77753 23.3287 9.07219C23.3287 13.3668 19.8472 16.8484 15.5526 16.8484ZM15.5526 14.2563C18.4156 14.2563 20.7367 11.9353 20.7367 9.07219C20.7367 6.20908 18.4156 3.88808 15.5526 3.88808C12.6894 3.88808 10.3684 6.20908 10.3684 9.07219C10.3684 11.9353 12.6894 14.2563 15.5526 14.2563Z" fill="#1C1C1C"/>
</svg>
