<svg width="46" height="46" viewBox="0 0 46 46" fill="none" xmlns="http://www.w3.org/2000/svg">
<rect width="46" height="46" rx="23" fill="#F5F5F5"/>
<path d="M23 28C21.6167 28 20.4377 27.5123 19.463 26.537C18.4883 25.5617 18.0007 24.3827 18 23C17.9993 21.6173 18.487 20.4383 19.463 19.463C20.439 18.4877 21.618 18 23 18C24.382 18 25.5613 18.4877 26.538 19.463C27.5147 20.4383 28.002 21.6173 28 23C27.998 24.3827 27.5103 25.562 26.537 26.538C25.5637 27.514 24.3847 28.0013 23 28ZM13 24C12.7167 24 12.4793 23.904 12.288 23.712C12.0967 23.52 12.0007 23.2827 12 23C11.9993 22.7173 12.0953 22.48 12.288 22.288C12.4807 22.096 12.718 22 13 22H15C15.2833 22 15.521 22.096 15.713 22.288C15.905 22.48 16.0007 22.7173 16 23C15.9993 23.2827 15.9033 23.5203 15.712 23.713C15.5207 23.9057 15.2833 24.0013 15 24H13ZM31 24C30.7167 24 30.4793 23.904 30.288 23.712C30.0967 23.52 30.0007 23.2827 30 23C29.9993 22.7173 30.0953 22.48 30.288 22.288C30.4807 22.096 30.718 22 31 22H33C33.2833 22 33.521 22.096 33.713 22.288C33.905 22.48 34.0007 22.7173 34 23C33.9993 23.2827 33.9033 23.5203 33.712 23.713C33.5207 23.9057 33.2833 24.0013 33 24H31ZM23 16C22.7167 16 22.4793 15.904 22.288 15.712C22.0967 15.52 22.0007 15.2827 22 15V13C22 12.7167 22.096 12.4793 22.288 12.288C22.48 12.0967 22.7173 12.0007 23 12C23.2827 11.9993 23.5203 12.0953 23.713 12.288C23.9057 12.4807 24.0013 12.718 24 13V15C24 15.2833 23.904 15.521 23.712 15.713C23.52 15.905 23.2827 16.0007 23 16ZM23 34C22.7167 34 22.4793 33.904 22.288 33.712C22.0967 33.52 22.0007 33.2827 22 33V31C22 30.7167 22.096 30.4793 22.288 30.288C22.48 30.0967 22.7173 30.0007 23 30C23.2827 29.9993 23.5203 30.0953 23.713 30.288C23.9057 30.4807 24.0013 30.718 24 31V33C24 33.2833 23.904 33.521 23.712 33.713C23.52 33.905 23.2827 34.0007 23 34ZM16.65 18.05L15.575 17C15.375 16.8167 15.279 16.5833 15.287 16.3C15.295 16.0167 15.391 15.775 15.575 15.575C15.775 15.375 16.0167 15.275 16.3 15.275C16.5833 15.275 16.8167 15.375 17 15.575L18.05 16.65C18.2333 16.85 18.325 17.0833 18.325 17.35C18.325 17.6167 18.2333 17.85 18.05 18.05C17.8667 18.25 17.6377 18.346 17.363 18.338C17.0883 18.33 16.8507 18.234 16.65 18.05ZM29 30.425L27.95 29.35C27.7667 29.15 27.675 28.9127 27.675 28.638C27.675 28.3633 27.7667 28.134 27.95 27.95C28.1333 27.75 28.3627 27.6543 28.638 27.663C28.9133 27.6717 29.1507 27.7673 29.35 27.95L30.425 29C30.625 29.1833 30.721 29.4167 30.713 29.7C30.705 29.9833 30.609 30.225 30.425 30.425C30.225 30.625 29.9833 30.725 29.7 30.725C29.4167 30.725 29.1833 30.625 29 30.425ZM27.95 18.05C27.75 17.8667 27.654 17.6377 27.662 17.363C27.67 17.0883 27.766 16.8507 27.95 16.65L29 15.575C29.1833 15.375 29.4167 15.279 29.7 15.287C29.9833 15.295 30.225 15.391 30.425 15.575C30.625 15.775 30.725 16.0167 30.725 16.3C30.725 16.5833 30.625 16.8167 30.425 17L29.35 18.05C29.15 18.2333 28.9167 18.325 28.65 18.325C28.3833 18.325 28.15 18.2333 27.95 18.05ZM15.575 30.425C15.375 30.225 15.275 29.9833 15.275 29.7C15.275 29.4167 15.375 29.1833 15.575 29L16.65 27.95C16.85 27.7667 17.0873 27.675 17.362 27.675C17.6367 27.675 17.866 27.7667 18.05 27.95C18.25 28.1333 18.346 28.3627 18.338 28.638C18.33 28.9133 18.234 29.1507 18.05 29.35L17 30.425C16.8167 30.625 16.5833 30.721 16.3 30.713C16.0167 30.705 15.775 30.609 15.575 30.425Z" fill="#184B4B"/>
</svg>
