<svg width="235" height="34" viewBox="0 0 235 34" fill="none" xmlns="http://www.w3.org/2000/svg">
<path d="M77.0101 1.48486V19.9142C77.0101 23.9862 79.2692 26.3906 83.1898 26.3906C87.5756 26.3906 90.0964 23.7191 90.0964 18.5773V1.48486H98.2708V33.1999H90.1024V29.5258C88.1769 32.5303 85.0525 33.9998 80.734 33.9998C73.4245 34.0021 68.8403 28.6605 68.8403 20.9144V1.48486H77.0101ZM164.795 0.884793C174.099 0.903214 180.662 8.39229 180.64 17.2137C180.641 18.086 180.574 18.957 180.437 19.8184L156.383 19.7733C157.305 23.58 160.423 26.3233 165.142 26.3335C167.998 26.3335 171.058 25.2761 172.922 22.8758L178.497 27.366C175.63 31.4342 170.574 33.8285 165.195 33.8179C155.698 33.7857 148.401 26.6273 148.418 17.3463C148.436 8.46551 154.762 0.866372 164.795 0.884793ZM216.661 0.884793C221.644 0.884793 224.502 2.41973 226.428 5.35926L227.193 1.48071H234.667V33.1999H227.193L226.228 29.9339C224.037 32.3383 221.31 33.8119 216.661 33.8119C209.483 33.8018 201.309 27.4581 201.309 17.577C201.309 7.62874 209.349 0.884793 216.661 0.884793ZM49.1961 0.884793C58.5649 0.884793 66.0078 8.23295 66.0078 17.3099C66.0078 26.3233 58.5649 33.8018 49.1961 33.8018C39.8924 33.8018 32.4514 26.315 32.4514 17.3099C32.4514 8.22834 39.8924 0.884793 49.1961 0.884793ZM133.245 0.682622C138.515 0.682622 143.183 3.02808 145.718 7.38374L138.519 11.2107C137.452 9.06558 135.451 7.85946 132.916 7.85946C130.45 7.85946 129.247 8.73077 129.247 10.2045C129.247 15.1643 146.455 12.0152 146.455 23.8802C146.455 30.0467 141.454 33.7977 133.384 33.7977C126.513 33.7917 121.711 31.5135 119.312 26.2865L126.577 22.4655C127.777 25.0804 130.178 26.6213 133.58 26.6213C136.715 26.6213 137.915 25.6173 137.915 24.2086C137.915 19.106 120.708 22.1984 120.708 10.5333C120.708 4.09972 126.31 0.682622 133.245 0.682622ZM16.7448 0.817556C19.5422 0.797889 22.3005 1.47789 24.7712 2.79628C27.2419 4.11467 29.3472 6.03001 30.8976 8.36972L23.9218 12.4357C23.1147 11.2767 22.0403 10.3312 20.7905 9.67998C19.5407 9.02879 18.1526 8.69127 16.7448 8.69624C11.9607 8.69624 8.04008 12.7028 8.04008 17.3099C8.04008 21.9166 11.9607 25.9231 16.7448 25.9231C18.2189 25.9328 19.671 25.5627 20.9622 24.848C22.2535 24.1334 23.3409 23.0981 24.1207 21.841L31.0278 25.9802C29.4964 28.3885 27.3831 30.368 24.8849 31.7343C22.3867 33.1006 19.5849 33.8092 16.7406 33.794C7.44104 33.8018 0 26.315 0 17.3099C0 8.16387 7.44104 0.817556 16.7448 0.817556ZM119.263 0.666504L117.755 8.33104C117.478 8.30064 117.199 8.28499 116.919 8.28406C112.535 8.2942 110.014 10.9699 110.027 16.1098L110.071 33.1976L101.899 33.216L101.83 1.50328L110.002 1.48486V5.15894C111.905 2.17473 114.997 0.701043 119.263 0.666504ZM201.384 0.68907L199.869 8.34531C199.591 8.31587 199.312 8.30019 199.032 8.29834C194.652 8.29834 192.125 10.968 192.125 16.1098V33.1999H183.953V1.48302H192.125V5.15663C194.036 2.17841 197.125 0.711635 201.384 0.68907ZM49.1961 8.76347C44.4125 8.76347 40.4919 12.77 40.4919 17.3099C40.4919 21.9166 44.4125 25.9231 49.1961 25.9231C54.0554 25.9231 57.9677 21.9166 57.9677 17.3099C57.9677 12.7705 54.0471 8.76347 49.1961 8.76347ZM218.058 8.7667C216.911 8.77098 215.776 9.00232 214.717 9.44751C213.659 9.8927 212.699 10.543 211.891 11.3613C211.083 12.1793 210.443 13.1493 210.008 14.2158C209.573 15.2823 209.351 16.4244 209.356 17.577C209.356 21.9843 213.276 25.9231 218.062 25.9231C222.907 25.9231 226.826 21.9838 226.826 17.5098C226.816 15.1822 225.888 12.9536 224.243 11.314C222.599 9.67439 220.375 8.75813 218.058 8.7667ZM164.716 8.36374C160.927 8.36374 157.868 10.6212 156.665 14.0236L172.413 14.0522C171.953 10.8474 168.636 8.36926 164.716 8.36374Z" fill="#0056D2"/>
</svg>
