<svg width="386" height="63" viewBox="0 0 386 63" fill="none" xmlns="http://www.w3.org/2000/svg">
<path d="M385.16 26.3052C385.371 26.6277 385.391 27.0427 385.21 27.3843L371.453 61.0462C371.367 61.2496 371.226 61.4244 371.047 61.5508C370.868 61.6773 370.658 61.7503 370.44 61.7615H365.597C365.407 61.7774 365.216 61.7406 365.045 61.655C364.873 61.5695 364.728 61.4383 364.624 61.2756C364.52 61.1128 364.462 60.9246 364.455 60.7308C364.448 60.537 364.493 60.3449 364.585 60.175L369.274 48.1721L361.9 27.3851C361.811 27.2173 361.769 27.0283 361.778 26.8381C361.787 26.6479 361.846 26.4638 361.95 26.3053C362.054 26.1469 362.199 26.0201 362.368 25.9385C362.537 25.8569 362.725 25.8236 362.912 25.8421H367.755C367.968 25.823 368.18 25.8794 368.357 26.0016C368.533 26.1238 368.663 26.3042 368.723 26.5123L372.906 40.6612H373.016L378.32 26.5123C378.672 25.8872 379.069 25.8421 379.795 25.8421H384.198C384.578 25.8039 384.948 25.9819 385.16 26.3052ZM234.075 25.3278C235.745 25.3182 237.398 25.6769 238.918 26.3793C240.438 27.0817 241.79 28.1109 242.88 29.3957C243.386 29.9101 243.143 30.5803 242.638 31.0946L240.436 33.4637C239.93 34.0231 239.38 33.7541 238.917 33.3078C238.328 32.6549 237.61 32.1345 236.81 31.7803C236.01 31.4261 235.146 31.2459 234.273 31.2513C233.441 31.2441 232.616 31.4094 231.849 31.7369C231.082 32.0644 230.389 32.5473 229.812 33.1561C229.235 33.7649 228.787 34.4868 228.494 35.2776C228.201 36.0685 228.07 36.9117 228.109 37.7556C228.058 38.6021 228.179 39.4502 228.463 40.2473C228.748 41.0445 229.191 41.7738 229.765 42.3899C230.339 43.0061 231.031 43.496 231.799 43.8292C232.567 44.1625 233.394 44.332 234.229 44.3272C235.199 44.3159 236.152 44.0734 237.013 43.6191C237.873 43.1648 238.616 42.5116 239.182 41.712C239.363 41.51 239.611 41.3825 239.879 41.3537C240.146 41.3248 240.415 41.3965 240.634 41.5554L242.836 43.5003C243.386 44.0139 243.651 44.5955 243.232 45.1992C242.258 46.7817 240.891 48.0756 239.268 48.9506C237.645 49.8257 235.824 50.2509 233.987 50.1835C232.34 50.2555 230.696 49.9882 229.153 49.3977C227.611 48.8073 226.202 47.9059 225.011 46.7479C223.821 45.5899 222.873 44.1993 222.226 42.6596C221.579 41.12 221.245 39.4633 221.245 37.7893C221.245 36.1152 221.579 34.4585 222.226 32.9189C222.873 31.3793 223.821 29.9886 225.011 28.8306C226.202 27.6726 227.611 26.7712 229.153 26.1808C230.696 25.5904 232.34 25.3231 233.987 25.395L234.075 25.3278ZM257.21 25.3278C264.474 25.3278 266.014 29.1726 266.014 35.6548V48.4174C266.014 49.0387 265.525 49.5454 264.914 49.5576H263.197C262.779 49.5576 262.493 49.4009 262.184 48.7307L261.524 47.1434C260.555 48.1039 259.408 48.8609 258.151 49.371C256.893 49.8812 255.548 50.1344 254.194 50.1162C253.132 50.1832 252.069 50.0182 251.076 49.6326C250.082 49.2469 249.182 48.6495 248.435 47.8805C247.689 47.1116 247.113 46.1891 246.747 45.1751C246.381 44.1611 246.233 43.0793 246.314 42.0024C246.424 37.8007 249.814 34.5589 255.713 34.5589C257.203 34.5887 258.682 34.8141 260.115 35.2299C260.115 32.2127 259.345 30.7591 256.879 30.7591C254.653 30.7973 252.438 31.09 250.276 31.6311C249.528 31.8994 249.066 31.3407 248.978 30.6254L248.471 27.9429C248.417 27.7996 248.393 27.6462 248.402 27.4929C248.412 27.3396 248.453 27.1901 248.524 27.0545C248.595 26.9189 248.694 26.8003 248.814 26.7068C248.933 26.6132 249.072 26.5469 249.219 26.5123C251.817 25.7498 254.506 25.3513 257.21 25.3278ZM139.754 25.3278C147.04 25.3278 148.559 29.1726 148.559 35.6548V48.4174C148.559 49.0471 148.056 49.5576 147.436 49.5576H145.719C145.323 49.5576 145.014 49.4009 144.706 48.7307L144.046 47.1434C143.078 48.1059 141.932 48.8642 140.673 49.3745C139.415 49.8847 138.07 50.1368 136.715 50.1162C135.654 50.1832 134.591 50.0182 133.597 49.6326C132.604 49.2469 131.704 48.6495 130.957 47.8805C130.21 47.1116 129.634 46.1891 129.268 45.1751C128.902 44.1611 128.755 43.0793 128.836 42.0024C128.968 37.8007 132.358 34.5589 138.279 34.5589C139.769 34.5856 141.249 34.8111 142.682 35.2299C142.682 32.2127 141.933 30.7591 139.446 30.7591C137.219 30.7973 135.004 31.09 132.842 31.6311C132.072 31.8994 131.631 31.3407 131.521 30.6254L131.015 27.9429C130.961 27.7996 130.937 27.6462 130.947 27.4929C130.956 27.3396 130.997 27.1901 131.068 27.0545C131.139 26.9189 131.238 26.8003 131.358 26.7068C131.478 26.6132 131.616 26.5469 131.763 26.5123C134.361 25.7498 137.049 25.3513 139.754 25.3278ZM317.093 28.4649C318.098 29.4928 318.884 30.7184 319.404 32.0663C319.925 33.4142 320.168 34.8559 320.12 36.3028C320.12 36.6605 320.12 37.4874 320.01 37.845C319.984 38.1282 319.858 38.3925 319.656 38.5895C319.454 38.7865 319.189 38.9031 318.91 38.918H303.941C303.967 39.6667 304.137 40.403 304.443 41.0846C304.749 41.7663 305.184 42.38 305.724 42.8907C306.264 43.4014 306.898 43.7991 307.589 44.0609C308.28 44.3227 309.015 44.4436 309.753 44.4166C311.569 44.4533 313.339 43.8358 314.749 42.6734C315.321 42.2034 315.916 42.1591 316.268 42.6734L318.249 45.333C318.353 45.4353 318.435 45.5597 318.487 45.6975C318.539 45.8353 318.56 45.983 318.55 46.1302C318.539 46.2774 318.497 46.4204 318.426 46.5492C318.355 46.6779 318.257 46.7892 318.139 46.8752C315.721 48.9859 312.633 50.1371 309.444 50.1162C307.856 50.1171 306.284 49.7929 304.822 49.1632C303.36 48.5336 302.038 47.6112 300.935 46.4512C299.832 45.2913 298.97 43.9175 298.402 42.412C297.833 40.9064 297.569 39.2999 297.625 37.6884C297.578 36.086 297.848 34.4903 298.418 32.9954C298.988 31.5006 299.847 30.1368 300.945 28.9847C302.043 27.8326 303.357 26.9154 304.809 26.2873C306.262 25.6592 307.823 25.333 309.402 25.3278C310.827 25.2905 312.245 25.5495 313.568 26.089C314.891 26.6285 316.091 27.437 317.095 28.4649H317.093ZM292.474 13.6381C292.766 13.6434 293.045 13.7621 293.254 13.9699C293.463 14.1777 293.585 14.4588 293.596 14.7554V48.4181C293.596 49.0479 293.094 49.5584 292.474 49.5584H290.603C290.052 49.5584 289.699 49.0891 289.502 48.4181L288.885 46.5634C287.944 47.6791 286.776 48.5745 285.461 49.188C284.146 49.8014 282.716 50.1184 281.27 50.117C274.886 50.117 270.087 44.8866 270.087 37.6891C269.99 36.0913 270.219 34.4904 270.759 32.9863C271.298 31.4821 272.138 30.1072 273.224 28.9472C274.311 27.7873 275.621 26.8673 277.073 26.2447C278.526 25.622 280.089 25.3102 281.665 25.3285C283.578 25.3316 285.476 25.664 287.279 26.3121V14.757C287.299 14.4674 287.422 14.195 287.624 13.9897C287.826 13.7844 288.094 13.6598 288.379 13.6389L292.474 13.6381ZM78.2523 13.7497C78.9221 13.7497 79.464 14.3 79.464 14.9794V28.8371L92.2086 14.2633C92.3185 14.1007 92.4667 13.9686 92.6396 13.8789C92.8126 13.7893 93.0049 13.7448 93.199 13.7497H98.2618C98.4748 13.74 98.6858 13.796 98.8669 13.9103C99.048 14.0246 99.1908 14.1919 99.2766 14.3902C99.3623 14.5885 99.387 14.8085 99.3473 15.0212C99.3076 15.234 99.2055 15.4296 99.0543 15.5823L85.8468 30.6705L100.001 47.8587C100.123 48.0285 100.196 48.229 100.212 48.4383C100.229 48.6476 100.188 48.8575 100.095 49.0448C100.002 49.2321 99.859 49.3896 99.6831 49.4999C99.5072 49.6102 99.3047 49.6691 99.0979 49.6699H93.5956C93.4253 49.6797 93.2548 49.6529 93.0954 49.5911C92.936 49.5293 92.7913 49.4341 92.6707 49.3115L79.4632 32.7713V48.4174C79.4632 49.1006 78.9251 49.6569 78.253 49.6692H73.8503C73.6894 49.6692 73.5302 49.6367 73.3818 49.5735C73.2334 49.5103 73.099 49.4178 72.9862 49.3012C72.8735 49.1847 72.7847 49.0465 72.7252 48.8947C72.6656 48.743 72.6365 48.5807 72.6394 48.4174V14.8678C72.6618 14.5593 72.8001 14.2713 73.0255 14.0633C73.251 13.8552 73.5465 13.743 73.8511 13.7497H78.2523ZM204.624 13.1911C204.803 13.1835 204.98 13.2333 205.131 13.3335C205.281 13.4338 205.396 13.5793 205.46 13.7497L221.023 48.2836C221.097 48.4278 221.133 48.5896 221.125 48.7523C221.118 48.915 221.068 49.0727 220.98 49.2093C220.893 49.3458 220.771 49.4563 220.628 49.5293C220.485 49.6024 220.325 49.6354 220.165 49.6249H215.762C215.438 49.6452 215.117 49.555 214.85 49.3686C214.583 49.1822 214.384 48.9103 214.287 48.5962L211.821 43.0533H196.809L194.322 48.5962C194.216 48.9004 194.019 49.1632 193.759 49.3477C193.498 49.5323 193.187 49.6292 192.869 49.6249H188.467C188.294 49.6544 188.117 49.6311 187.957 49.5578C187.798 49.4846 187.663 49.3647 187.571 49.2135C187.479 49.0624 187.434 48.8868 187.44 48.7092C187.447 48.5316 187.506 48.36 187.609 48.2164L203.259 13.7497C203.322 13.5927 203.427 13.4568 203.562 13.3581C203.698 13.2593 203.858 13.2017 204.024 13.1918L204.624 13.1911ZM108.916 13.6381C109.208 13.6434 109.487 13.7621 109.696 13.9699C109.905 14.1777 110.027 14.4588 110.039 14.7554V27.3407C111.717 25.9656 113.827 25.2511 115.982 25.3285C123.421 25.3285 125.447 30.5589 125.447 36.5046V48.396C125.436 48.6949 125.314 48.9786 125.106 49.1901C124.897 49.4016 124.618 49.5252 124.324 49.5362H120.23C119.936 49.5302 119.656 49.4074 119.45 49.1942C119.244 48.981 119.129 48.6945 119.129 48.396V36.4595C119.129 33.1733 117.654 31.184 114.881 31.184C113.714 31.1605 112.578 31.5696 111.687 32.3348C110.796 33.1001 110.21 34.169 110.039 35.3414V48.4174C110.039 49.0884 109.73 49.5576 108.806 49.5576H104.821C104.529 49.5463 104.252 49.4219 104.048 49.2098C103.843 48.9978 103.726 48.7142 103.721 48.4174V14.7554C103.742 14.466 103.864 14.1938 104.066 13.9887C104.268 13.7835 104.536 13.6591 104.821 13.6381H108.916ZM342.705 28.9044C343.63 27.7894 344.782 26.8907 346.081 26.2695C347.381 25.6484 348.797 25.3196 350.233 25.3056C357.695 25.3056 359.478 30.134 359.478 36.2799V48.3952C359.475 48.5479 359.443 48.6985 359.383 48.8385C359.323 48.9785 359.236 49.105 359.127 49.2109C359.019 49.3169 358.891 49.4 358.751 49.4557C358.611 49.5114 358.462 49.5385 358.311 49.5354H354.262C353.968 49.5296 353.688 49.4069 353.482 49.1937C353.276 48.9805 353.16 48.6938 353.161 48.3952V36.1018C353.161 33.0396 352.038 31.1397 349.111 31.1397C348.218 31.0446 347.317 31.2292 346.53 31.6686C345.743 32.108 345.107 32.7814 344.708 33.5982V48.3509C344.703 48.6476 344.586 48.931 344.381 49.1428C344.176 49.3547 343.9 49.4791 343.608 49.4903H339.733C339.585 49.4935 339.438 49.4661 339.3 49.41C339.163 49.3538 339.038 49.27 338.933 49.1636C338.828 49.0572 338.745 48.9303 338.69 48.7907C338.634 48.651 338.607 48.5014 338.61 48.3509V36.1018C338.61 33.0396 337.752 31.1397 334.78 31.1397C333.746 31.1653 332.75 31.5427 331.952 32.2114C331.153 32.8801 330.599 33.8014 330.378 34.8279V48.3723C330.372 48.669 330.255 48.9524 330.051 49.1642C329.846 49.3761 329.569 49.5005 329.277 49.5117H325.183C324.891 49.5005 324.614 49.3761 324.41 49.1642C324.205 48.9524 324.088 48.669 324.083 48.3723L323.862 26.9816C323.862 26.3602 324.352 25.8536 324.963 25.8413H326.79C327.001 25.8186 327.213 25.8738 327.387 25.997C327.561 26.1201 327.685 26.3028 327.737 26.5116L328.595 28.7469C329.438 27.649 330.521 26.766 331.76 26.1684C332.998 25.5709 334.357 25.2751 335.727 25.3048C337.097 25.2422 338.46 25.5407 339.683 26.1713C340.906 26.8019 341.947 27.7432 342.705 28.9036L342.705 28.9044ZM166.389 25.3507C173.807 25.3507 175.722 30.4244 175.722 36.1691V48.4403C175.701 48.7215 175.58 48.9854 175.382 49.1826C175.183 49.3799 174.921 49.4972 174.644 49.5125H170.461C170.164 49.5125 169.878 49.3925 169.668 49.1788C169.457 48.9651 169.339 48.6753 169.338 48.373V36.1018C169.338 33.0396 168.128 31.1397 165.311 31.1397C164.186 31.1086 163.082 31.4523 162.168 32.1183C161.253 32.7843 160.579 33.736 160.248 34.8279V48.3723C160.248 49.2435 159.896 49.5117 158.795 49.5117H155.053C154.758 49.5006 154.479 49.3769 154.271 49.1656C154.063 48.9543 153.941 48.6709 153.93 48.3723V26.9816C153.93 26.3518 154.432 25.8413 155.053 25.8413H157.034C157.486 25.8062 157.896 26.1088 158.003 26.5566L158.861 28.792C159.774 27.673 160.927 26.781 162.232 26.1844C163.537 25.5878 164.959 25.3031 166.389 25.3507ZM256.638 38.6276C253.953 38.6276 252.5 39.9016 252.5 42.0024C252.465 42.4566 252.529 42.9129 252.687 43.3391C252.845 43.7653 253.094 44.151 253.415 44.4688C253.737 44.7865 254.123 45.0287 254.547 45.178C254.971 45.3274 255.421 45.3803 255.868 45.333C256.722 45.3083 257.556 45.0635 258.291 44.6217C259.026 44.1799 259.639 43.5555 260.072 42.8072V39.3429C258.982 38.8859 257.817 38.6432 256.638 38.6276ZM139.182 38.6276C136.496 38.6276 135.044 39.9016 135.044 42.0024C135.013 42.4577 135.08 42.9143 135.241 43.3404C135.402 43.7664 135.652 44.1516 135.975 44.4689C136.298 44.7862 136.686 45.028 137.11 45.1772C137.535 45.3265 137.986 45.3796 138.434 45.333C139.285 45.3087 140.116 45.0639 140.848 44.6219C141.58 44.1798 142.188 43.5552 142.616 42.8072V39.3429C141.526 38.8859 140.361 38.6432 139.182 38.6276ZM282.414 31.184C281.602 31.1933 280.801 31.3726 280.061 31.7107C279.321 32.0488 278.657 32.5385 278.111 33.149C277.566 33.7595 277.151 34.4778 276.891 35.2589C276.632 36.04 276.534 36.8671 276.603 37.6884C276.603 41.0418 278.474 44.2607 282.128 44.2607C283.213 44.3093 284.288 44.0209 285.208 43.4338C286.129 42.8467 286.851 41.9889 287.279 40.9746V32.5253C285.812 31.627 284.127 31.1625 282.414 31.184ZM204.382 25.9988H204.228L199.276 37.2864H209.422L204.382 25.9988ZM304.448 34.7155H313.803C313.74 33.585 313.245 32.5243 312.422 31.76C311.599 30.9957 310.515 30.5885 309.4 30.6254C308.216 30.5353 307.044 30.9089 306.123 31.6696C305.202 32.4303 304.602 33.5202 304.448 34.7155Z" fill="black"/>
<path d="M3.63207 13.3027C2.58084 13.9783 1.70313 14.8984 1.07154 15.9868C0.439953 17.0752 0.0726451 18.3006 0 19.5618L0 43.7014C0.0726451 44.9626 0.439953 46.188 1.07154 47.2764C1.70313 48.3648 2.58084 49.2849 3.63207 49.9605L24.9616 62.075C26.0923 62.6375 27.3346 62.93 28.5937 62.93C29.8528 62.93 31.0951 62.6375 32.2258 62.075L53.5771 49.9597C54.6283 49.2842 55.5059 48.3642 56.1375 47.276C56.7691 46.1877 57.1364 44.9624 57.2092 43.7014V19.561C57.1364 18.3 56.7691 17.0747 56.1375 15.9864C55.5059 14.8982 54.6283 13.9783 53.5771 13.3027L32.2476 1.18821C31.117 0.625656 29.8746 0.333191 28.6155 0.333191C27.3565 0.333191 26.1141 0.625656 24.9834 1.18821L3.63207 13.302V13.3027Z" fill="#14BF96"/>
<path d="M50.5178 25.6411C38.6748 25.6411 29.8264 35.6097 29.8264 47.8366V48.3509H27.4489V47.8366C27.4489 35.6097 18.6435 25.6854 6.71319 25.6411V27.8765C6.68981 32.3933 8.02681 36.8094 10.545 40.5328C13.0631 44.2563 16.642 47.109 20.8019 48.7086C23.3334 49.6509 26.0081 50.1349 28.7043 50.1384C31.4215 50.1347 34.1175 49.6509 36.6714 48.7086C40.8253 47.1025 44.3977 44.2474 46.9112 40.5247C49.4247 36.8021 50.7596 32.3892 50.7375 27.8757C50.6269 27.1612 50.5832 26.4008 50.5178 25.6411Z" fill="white"/>
<path d="M28.6156 26.5795C32.2625 26.5795 35.2189 23.5774 35.2189 19.8742C35.2189 16.1709 32.2625 13.1688 28.6156 13.1688C24.9686 13.1688 22.0122 16.1709 22.0122 19.8742C22.0122 23.5774 24.9686 26.5795 28.6156 26.5795Z" fill="white"/>
</svg>
