<svg width="407" height="59" viewBox="0 0 407 59" fill="none" xmlns="http://www.w3.org/2000/svg">
<path d="M27.2735 0.000306675C30.0204 -0.023163 32.6869 0.917599 34.7995 2.65558C36.9122 4.39357 38.3343 6.81634 38.8135 9.49378C41.3956 8.5211 44.2435 8.49219 46.8451 9.41224C49.4468 10.3323 51.6315 12.1409 53.0064 14.5129L53.0111 14.5224L53.0643 14.6222C54.3927 16.9624 54.8578 19.6868 54.3801 22.329C53.9024 24.9713 52.5115 27.3669 50.4456 29.1058C52.5834 30.8455 54.0292 33.2788 54.5265 35.9736C55.0238 38.6684 54.5404 41.4505 53.162 43.826L53.1326 43.8747L53.0993 43.9211C51.7326 46.2366 49.589 48.0044 47.0414 48.9169C44.4939 49.8294 41.7038 49.8288 39.1566 48.9151C38.7401 51.6125 37.3671 54.0749 35.2835 55.8616C33.2 57.6483 30.5419 58.6425 27.7854 58.6661C25.0288 58.6898 22.3537 57.7413 20.2392 55.9907C18.1247 54.24 16.7088 51.8015 16.245 49.1117C13.7507 50.0513 11.0053 50.1112 8.47155 49.2811C5.93779 48.4511 3.77053 46.7819 2.33495 44.5548L2.30477 44.5076L2.35798 44.5957L2.0498 44.0988C2.03966 44.0824 2.03012 44.0656 2.02121 44.0485L1.99738 43.9966C0.667964 41.6571 0.201915 38.9328 0.679103 36.2905C1.15629 33.6482 2.547 31.2525 4.61292 29.5138C2.47024 27.7745 1.02104 25.3387 0.52355 22.6404C0.0260642 19.9421 0.512619 17.1566 1.89651 14.7803L1.9251 14.7323L1.95688 14.6851C3.32721 12.3727 5.47151 10.6076 8.01834 9.69551C10.5652 8.78344 13.3541 8.78189 15.9019 9.69112C16.3342 7.0058 17.7137 4.55895 19.7957 2.78497C21.8777 1.01099 24.5273 0.0246667 27.2743 0.00109288L27.2735 0.000306675ZM27.3371 2.01222C22.1822 2.03109 18.0194 6.18384 18.0385 11.2863C18.0528 11.4994 18.0067 11.7125 17.9051 11.9004C17.8346 12.0316 17.7386 12.1478 17.6226 12.2422C17.5067 12.3366 17.373 12.4074 17.2293 12.4506C17.0857 12.4938 16.9348 12.5084 16.7854 12.4937C16.6359 12.4791 16.4909 12.4353 16.3586 12.365L16.141 12.2534C11.7646 10.0819 6.41354 11.6291 3.91714 15.8283C3.9033 15.8584 3.88792 15.8878 3.87107 15.9163L3.74955 16.131C1.38341 20.4551 2.83296 25.88 7.09026 28.4713C7.2714 28.563 7.4248 28.7005 7.53488 28.8698C7.64495 29.0392 7.70778 29.2343 7.71698 29.4355C7.72618 29.6367 7.68142 29.8366 7.58724 30.0151C7.49307 30.1936 7.35284 30.3443 7.18081 30.4518L6.92584 30.6145L6.76461 30.7246C4.90108 32.027 3.5796 33.9557 3.04649 36.1512C2.51339 38.3468 2.80505 40.6593 3.8671 42.6577L3.98624 42.8747C4.0061 42.9022 4.02516 42.9297 4.04184 42.9596L4.16892 43.1718C6.75031 47.3592 12.2125 48.8302 16.5921 46.4731C16.7618 46.3628 16.9582 46.2992 17.161 46.2891C17.3637 46.279 17.5656 46.3226 17.7456 46.4155C17.9257 46.5083 18.0774 46.6471 18.1852 46.8174C18.2929 46.9878 18.3528 47.1835 18.3586 47.3844L18.3737 47.7743L18.353 47.3899L18.3578 47.6446C18.4073 49.1776 18.8416 50.6742 19.6214 51.9996C20.4013 53.3249 21.5022 54.4372 22.8248 55.2362L23.0512 55.3683C24.4733 56.174 26.0846 56.595 27.7231 56.589C29.3617 56.5829 30.9698 56.15 32.3857 55.3337C33.8017 54.5175 34.9756 53.3467 35.7895 51.939C36.6034 50.5313 37.0286 48.9363 37.0224 47.3144C37.0081 47.1126 37.0488 46.9108 37.1401 46.7298C37.2314 46.5489 37.37 46.3955 37.5415 46.2856C37.713 46.1757 37.9112 46.1133 38.1154 46.1049C38.3195 46.0966 38.5222 46.1426 38.7023 46.2381L38.9239 46.3513C43.2956 48.5149 48.6379 46.9692 51.1343 42.7772L51.1795 42.6875C53.7188 38.3335 52.2963 32.7734 47.9731 30.1396C47.7914 30.0482 47.6374 29.9106 47.527 29.741C47.4165 29.5715 47.3534 29.3759 47.3442 29.1743C47.335 28.9728 47.38 28.7724 47.4746 28.5936C47.5691 28.4149 47.7099 28.2642 47.8825 28.1568C49.9253 26.8876 51.397 24.8894 51.9928 22.576C52.5886 20.2625 52.263 17.8109 51.0834 15.7284C51.0645 15.7018 51.047 15.6743 51.031 15.6459L50.9039 15.4344C48.3257 11.2415 42.8587 9.77132 38.4799 12.1354C38.304 12.2496 38.1 12.3143 37.8898 12.3226C37.5857 12.3321 37.2903 12.2218 37.0684 12.0158C36.8465 11.8099 36.7162 11.5252 36.7063 11.2242C36.688 6.11387 32.4927 1.99256 27.3379 2.01222H27.3371ZM20.0583 31.8764C20.335 31.3324 20.8125 30.9146 21.3919 30.7096C21.9712 30.5045 22.608 30.5279 23.1704 30.7749C23.7329 31.0218 24.1777 31.4735 24.413 32.0362C24.6482 32.599 24.6557 33.2298 24.434 33.7979C24.0273 34.6564 24.0051 35.1635 24.2799 35.7681L26.3688 40.1709C26.7771 41.0569 27.6635 41.3565 28.3863 41.531C29.493 41.7952 30.4838 42.4064 31.211 43.2734C31.9381 44.1405 32.3628 45.2169 32.4215 46.3423C32.4803 47.4676 32.17 48.5817 31.537 49.5183C30.904 50.4549 29.9821 51.1639 28.9089 51.5397C27.8356 51.9154 26.6684 51.9377 25.5812 51.6033C24.4941 51.2689 23.5452 50.5956 22.8761 49.6839C22.2071 48.7722 21.8536 47.6709 21.8684 46.5441C21.8831 45.4174 22.2654 44.3255 22.9582 43.4313C23.5404 42.6773 23.7152 42.1498 23.4928 41.204L22.3729 36.4443C22.2188 35.831 21.9011 35.5228 20.998 35.0063C20.4662 34.7029 20.0723 34.2092 19.8975 33.6268C19.7227 33.0445 19.7802 32.4179 20.0583 31.8764ZM20.9082 24.3374C21.5242 24.3062 22.1288 24.5102 22.5972 24.9074C23.0657 25.3047 23.3621 25.8647 23.4254 26.4721C23.4887 27.0794 23.314 27.6876 22.9374 28.1711C22.5607 28.6546 22.0109 28.9765 21.4015 29.0704C20.4483 29.1482 19.994 29.3825 19.6 29.9219L16.8026 33.9174C16.2347 34.7114 16.4134 35.6235 16.6263 36.3326C16.9484 37.418 16.9072 38.5773 16.5091 39.6376C16.1109 40.6979 15.377 41.6024 14.4169 42.216C13.4569 42.8296 12.3221 43.1194 11.182 43.0423C10.0418 42.9651 8.95745 42.5251 8.09066 41.7879C7.22387 41.0507 6.62115 40.0559 6.37243 38.9518C6.1237 37.8477 6.24233 36.6936 6.71059 35.6617C7.17885 34.6299 7.97164 33.7755 8.97066 33.2262C9.96968 32.6769 11.1214 32.4621 12.2538 32.6138C13.2054 32.7396 13.7526 32.6264 14.4667 31.9621L18.0592 28.6183C18.5198 28.1788 18.6263 27.7519 18.6263 26.7181C18.6259 26.1072 18.8625 25.5196 19.2874 25.0765C19.7122 24.6334 20.2927 24.3689 20.909 24.3374H20.9082ZM38.7992 34.0227C39.401 33.3906 40.153 32.9174 40.9868 32.6463C41.8205 32.3753 42.7095 32.3149 43.5728 32.4707C44.4773 32.6324 45.3238 33.0241 46.0291 33.6076C46.7344 34.1911 47.2742 34.9461 47.5954 35.7985C47.9167 36.651 48.0083 37.5715 47.8614 38.4696C47.7145 39.3678 47.334 40.2126 46.7574 40.9211C46.1808 41.6297 45.4278 42.1775 44.5726 42.5108C43.7173 42.8441 42.7892 42.9514 41.8793 42.8222C40.9695 42.693 40.1093 42.3317 39.3832 41.7738C38.6571 41.2159 38.0902 40.4806 37.7381 39.6402C37.3727 38.7589 37.001 38.3469 36.0621 38.0646L31.3553 36.6487C30.7397 36.4741 30.3156 36.5936 29.4157 37.1102C28.9249 37.3944 28.3474 37.4948 27.7882 37.3932C27.1738 37.2673 26.6333 36.9088 26.282 36.3941C25.9307 35.8795 25.7964 35.2494 25.9076 34.6381C26.0189 34.0269 26.3669 33.4828 26.8775 33.1218C27.3882 32.7609 28.021 32.6116 28.6413 32.7058C29.2071 32.8058 29.717 33.1055 30.0765 33.5494C30.6214 34.3309 31.055 34.6061 31.7159 34.6682L36.6022 35.0755C37.5792 35.1674 38.2925 34.5566 38.7976 34.0219L38.7992 34.0227ZM38.63 16.2748C39.2475 15.6137 40.0266 15.1211 40.8922 14.8445C41.7578 14.5678 42.6808 14.5164 43.5723 14.6952C44.4637 14.8741 45.2937 15.2771 45.9822 15.8655C46.6707 16.4539 47.1945 17.2079 47.5033 18.0548C47.8121 18.9017 47.8953 19.813 47.7451 20.701C47.5948 21.589 47.2161 22.4238 46.6454 23.1249C46.0747 23.826 45.3313 24.3699 44.4866 24.7041C43.642 25.0383 42.7247 25.1517 41.823 25.0332C40.8746 24.9058 40.3266 25.0206 39.6125 25.685L36.0256 29.0264C35.5641 29.4674 35.4577 29.892 35.4577 30.929C35.4582 31.3121 35.3652 31.6896 35.1866 32.0295C35.0079 32.3693 34.749 32.6614 34.4318 32.8808C34.1145 33.1003 33.7484 33.2406 33.3646 33.2899C32.9808 33.3391 32.5907 33.2958 32.2274 33.1637C31.8642 33.0316 31.5385 32.8145 31.2782 32.531C31.018 32.2475 30.8308 31.9059 30.7326 31.5354C30.6344 31.1648 30.6281 30.7763 30.7142 30.4028C30.8004 30.0293 30.9764 29.682 31.2274 29.3904C31.5976 28.954 32.1147 28.6647 32.6833 28.5759C33.6388 28.4988 34.0931 28.2637 34.4792 27.7244L37.275 23.7297C37.8445 22.9325 37.6626 22.0236 37.4537 21.3121C37.2033 20.4771 37.1669 19.5935 37.3478 18.7411C37.5288 17.8887 37.9214 17.0943 38.4902 16.4297L38.63 16.2748ZM26.9288 5.76008C27.9204 5.75961 28.8921 6.0346 29.7336 6.55376C30.5751 7.07292 31.2525 7.81541 31.6887 8.69679C32.125 9.57816 32.3026 10.563 32.2014 11.5394C32.1002 12.5157 31.7242 13.4444 31.1162 14.2197C30.5412 14.9697 30.3593 15.4965 30.5944 16.4557L31.7143 21.1997C31.8684 21.8168 32.1861 22.1235 33.0868 22.6384C33.4834 22.8647 33.8062 23.1986 34.0171 23.6008C34.2279 24.0029 34.318 24.4565 34.2767 24.9077C34.2353 25.3589 34.0643 25.789 33.7838 26.1471C33.5033 26.5051 33.125 26.7762 32.6938 26.9281C32.2626 27.0801 31.7964 27.1066 31.3504 27.0045C30.9044 26.9025 30.4973 26.6761 30.1772 26.3522C29.8571 26.0284 29.6374 25.6205 29.5441 25.1769C29.4508 24.7334 29.4878 24.2726 29.6508 23.8492C30.0566 22.9899 30.0821 22.4812 29.8049 21.8789L27.7183 17.4738C27.3069 16.5878 26.4236 16.2882 25.7009 16.116L25.6897 16.1207C24.5814 15.8534 23.5895 15.2398 22.8609 14.371C22.1323 13.5021 21.7057 12.4241 21.6443 11.2965C21.5829 10.169 21.89 9.05179 22.52 8.11043C23.1501 7.16908 24.0696 6.45357 25.1425 6.06984C25.7151 5.86415 26.3197 5.75931 26.9288 5.76008ZM10.3857 14.8777C11.5916 14.6325 12.8462 14.8106 13.9339 15.3814C15.0216 15.9523 15.8744 16.8804 16.3459 18.0061C16.7113 18.8851 17.0846 19.2994 18.021 19.5816L22.7311 20.9968C23.3443 21.1721 23.77 21.0503 24.6707 20.5329C25.0687 20.3049 25.5244 20.1946 25.9839 20.215C26.4433 20.2354 26.8872 20.3856 27.2631 20.648C27.6389 20.9103 27.9309 21.2738 28.1046 21.6953C28.2782 22.1168 28.3262 22.5788 28.2429 23.0265C28.1596 23.4741 27.9484 23.8888 27.6344 24.2214C27.3204 24.554 26.9167 24.7906 26.471 24.9031C26.0254 25.0156 25.5566 24.9994 25.1199 24.8564C24.6833 24.7134 24.2973 24.4495 24.0075 24.0961C23.4626 23.3146 23.0305 23.0402 22.3673 22.9781L17.4841 22.5708C16.5072 22.478 15.7939 23.0873 15.2887 23.6243C14.686 24.2557 13.9336 24.7282 13.0998 24.999C12.266 25.2699 11.3771 25.3306 10.5136 25.1755C9.30196 24.9595 8.20415 24.3326 7.40877 23.4025C6.6134 22.4724 6.17011 21.2971 6.15507 20.0786C6.14003 18.86 6.55418 17.6744 7.32637 16.7253C8.09856 15.7762 9.18056 15.1229 10.3865 14.8777H10.3857ZM90.6525 38.692C89.413 40.052 87.9526 41.1973 86.3317 42.0806C84.7113 42.9627 82.6089 43.403 80.0243 43.4014C78.1657 43.4179 76.323 43.0586 74.6106 42.3455C73.0096 41.6889 71.5564 40.7241 70.3351 39.5072C69.1139 38.2902 68.1489 36.8453 67.4963 35.2563C66.8169 33.6173 66.474 31.8608 66.4875 30.0893V29.9918C66.4755 28.2133 66.8183 26.4499 67.4963 24.8029C68.1491 23.2111 69.106 21.759 70.3144 20.5259C71.5348 19.2901 72.9933 18.3092 74.6034 17.6413C76.3482 16.9222 78.2227 16.5629 80.1125 16.5854C82.5747 16.5854 84.6136 16.9698 86.23 17.7388C87.8508 18.5082 89.3028 19.5859 90.5032 20.9103L85.9853 25.707C85.2214 24.9017 84.3478 24.2058 83.3897 23.6393C82.3669 23.0964 81.2166 22.8327 80.0569 22.8751C79.176 22.8628 78.3041 23.0516 77.5089 23.427C76.7483 23.7943 76.0704 24.3099 75.516 24.9428C74.9383 25.6025 74.4932 26.3655 74.2047 27.1906C73.897 28.0584 73.7433 28.9723 73.7504 29.892V29.9871C73.7424 30.9361 73.8989 31.8795 74.2118 32.7766C74.5015 33.6059 74.9551 34.3697 75.5462 35.0236C76.1299 35.6656 76.841 36.1816 77.6352 36.5394C78.4905 36.9164 79.4185 37.1047 80.3548 37.0913C81.4775 37.1138 82.5879 36.8562 83.5835 36.342C84.5777 35.7914 85.499 35.1206 86.3261 34.3451L90.6525 38.692ZM100.655 42.8243H93.268V7.72874H100.65L100.655 42.8251V42.8243ZM131.97 29.9918C131.98 31.7815 131.615 33.5538 130.897 35.1965C130.199 36.7893 129.193 38.2313 127.935 39.4413C126.645 40.6753 125.129 41.6541 123.468 42.3251C121.681 43.0429 119.767 43.4022 117.836 43.3818C115.925 43.3996 114.028 43.0485 112.252 42.3479C110.599 41.7035 109.089 40.7458 107.807 39.5286C106.558 38.3227 105.56 36.8855 104.871 35.2987C104.153 33.6528 103.79 31.8771 103.803 30.0846V29.9871C103.79 28.1946 104.153 26.4188 104.871 24.773C105.568 23.1801 106.574 21.7378 107.832 20.5274C109.121 19.2917 110.637 18.3127 112.3 17.6436C114.087 16.9258 116.001 16.5665 117.931 16.5877C119.843 16.5699 121.74 16.9211 123.516 17.6216C125.169 18.2697 126.679 19.2327 127.958 20.4559C129.207 21.6618 130.205 23.099 130.894 24.6857C131.612 26.3316 131.975 28.1073 131.962 29.8998L131.97 29.9918ZM124.686 30.0893V29.9918C124.694 29.0641 124.53 28.1429 124.204 27.2731C123.887 26.4345 123.406 25.6661 122.788 25.0118C122.17 24.3575 121.428 23.8302 120.605 23.46C119.733 23.0685 118.786 22.8715 117.829 22.8829C116.854 22.8648 115.885 23.053 114.989 23.4348C114.186 23.7884 113.467 24.3048 112.878 24.9507C112.287 25.605 111.832 26.3687 111.54 27.1976C111.233 28.0632 111.08 28.9747 111.086 29.892V29.9871C111.081 30.913 111.246 31.832 111.573 32.6995C112.213 34.3856 113.495 35.7567 115.143 36.5197C116.018 36.9145 116.971 37.1114 117.933 37.096C118.909 37.1142 119.877 36.9261 120.774 36.5441C121.577 36.1908 122.296 35.6746 122.885 35.0291C123.475 34.3782 123.929 33.6187 124.222 32.7939C124.532 31.9235 124.688 31.0068 124.682 30.0846L124.686 30.0893ZM158.433 42.8251H151.046V39.1669C150.621 39.7182 150.159 40.2406 149.664 40.7307C149.155 41.2307 148.595 41.6741 147.988 42.0515C147.352 42.4446 146.666 42.752 145.947 42.9651C145.128 43.2004 144.278 43.3144 143.425 43.3031C140.61 43.3031 138.434 42.454 136.896 40.7558C135.359 39.0576 134.59 36.7186 134.59 33.7389V17.0595H141.969V31.4306C141.969 33.1603 142.358 34.4654 143.135 35.3459C143.912 36.2265 145.013 36.6675 146.437 36.6691C147.859 36.6691 148.984 36.2288 149.81 35.3459C150.636 34.4638 151.049 33.1587 151.049 31.4306V17.0595H158.43L158.433 42.8243V42.8251ZM188.68 42.8251H181.296V39.1197C180.407 40.3175 179.293 41.3348 178.016 42.116C176.74 42.9006 175.13 43.2929 173.185 43.2953C171.671 43.2988 170.17 43.0076 168.768 42.4383C167.337 41.8567 166.047 40.9809 164.984 39.869C163.837 38.6606 162.937 37.2437 162.335 35.6966C161.641 33.8776 161.303 31.9445 161.339 30.0005V29.9061C161.303 27.9618 161.641 26.0284 162.335 24.2093C162.932 22.6637 163.821 21.2451 164.956 20.0298C166.008 18.9132 167.293 18.0355 168.721 17.4573C170.137 16.8824 171.654 16.5888 173.185 16.5933C175.161 16.5933 176.789 16.9785 178.067 17.7474C179.283 18.4654 180.373 19.3734 181.296 20.4362V7.72874H188.674L188.68 42.8251ZM181.397 29.9926V29.8983C181.41 28.907 181.239 27.9216 180.892 26.9917C180.584 26.1615 180.123 25.3951 179.532 24.7313C178.979 24.117 178.301 23.6261 177.542 23.291C176.768 22.9584 175.934 22.7867 175.09 22.7867C174.246 22.7867 173.412 22.9584 172.638 23.291C171.873 23.629 171.186 24.1193 170.62 24.7313C170.019 25.387 169.55 26.1498 169.238 26.9791C168.886 27.9166 168.715 28.911 168.733 29.9109V30.0052C168.719 30.9973 168.89 31.9834 169.237 32.9142C169.548 33.744 170.017 34.507 170.619 35.1619C171.185 35.775 171.872 36.2663 172.638 36.6054C173.412 36.938 174.246 37.1097 175.09 37.1097C175.934 37.1097 176.768 36.938 177.542 36.6054C178.301 36.2692 178.98 35.7772 179.532 35.1619C180.122 34.5021 180.583 33.74 180.892 32.9142C181.24 31.9786 181.409 30.9856 181.392 29.9879L181.397 29.9926ZM225.892 42.8251H218.751V40.0341C217.837 41.0333 216.73 41.842 215.496 42.4132C214.235 43.006 212.698 43.3024 210.885 43.3024C209.709 43.311 208.538 43.1426 207.414 42.8031C206.374 42.4905 205.408 41.9751 204.573 41.2873C203.759 40.61 203.105 39.7654 202.655 38.8123C202.168 37.7491 201.927 36.5911 201.952 35.4238V35.3294C201.918 34.0681 202.185 32.8167 202.729 31.6759C203.231 30.667 203.971 29.7931 204.888 29.1286C205.883 28.4226 207.003 27.9094 208.191 27.6159C209.579 27.2674 211.006 27.0994 212.438 27.1159C213.602 27.1016 214.764 27.198 215.909 27.4036C216.892 27.5907 217.859 27.8439 218.806 28.1623V27.7299C218.806 26.1921 218.337 25.0269 217.399 24.2344C216.46 23.4419 215.068 23.0417 213.223 23.0331C211.959 23.0174 210.697 23.1384 209.459 23.3932C208.295 23.657 207.151 24.0025 206.036 24.427L204.175 18.8387C205.62 18.2209 207.114 17.7197 208.642 17.3402C210.489 16.924 212.379 16.7303 214.273 16.7631C218.319 16.7631 221.263 17.7403 223.102 19.6948C224.942 21.6494 225.867 24.3728 225.877 27.8651L225.893 42.8251H225.892ZM218.902 33.7436V32.4503C217.418 31.8061 215.813 31.4784 214.192 31.4888C212.604 31.4888 211.358 31.793 210.453 32.4024C210.015 32.6881 209.659 33.0819 209.42 33.545C209.182 34.0082 209.069 34.5248 209.094 35.044V35.1415C209.073 35.5876 209.164 36.032 209.359 36.4347C209.554 36.8374 209.847 37.1859 210.211 37.449C210.956 37.9939 211.927 38.2659 213.122 38.2659C214.87 38.2659 216.27 37.8492 217.322 37.0174C217.828 36.6336 218.235 36.1362 218.509 35.5661C218.783 34.9961 218.916 34.3698 218.897 33.7389L218.902 33.7436ZM252.64 38.6928C251.401 40.0503 249.941 41.1938 248.322 42.0767C246.702 42.9588 244.6 43.3991 242.015 43.3975C240.157 43.4138 238.314 43.0542 236.601 42.3408C235 41.6841 233.547 40.7193 232.326 39.5023C231.105 38.2854 230.14 36.8405 229.487 35.2516C228.808 33.6129 228.465 31.8567 228.479 30.0854V29.9879C228.467 28.2094 228.809 26.446 229.487 24.7989C230.14 23.2073 231.097 21.7551 232.305 20.5219C233.525 19.2859 234.983 18.3048 236.594 17.6366C238.339 16.9174 240.214 16.5581 242.104 16.5807C244.563 16.5807 246.603 16.9659 248.221 17.7348C249.841 18.5053 251.293 19.5824 252.494 20.9056L247.979 25.7078C247.214 24.9024 246.339 24.2064 245.38 23.64C244.492 23.1274 243.384 22.8711 242.055 22.8711C241.174 22.8588 240.302 23.0477 239.507 23.4231C238.747 23.7906 238.07 24.3062 237.517 24.9389C236.939 25.5984 236.494 26.361 236.205 27.1859C235.894 28.0574 235.737 28.9761 235.744 29.9006V29.995C235.739 30.9421 235.898 31.883 236.212 32.7774C236.502 33.6066 236.956 34.3705 237.547 35.0244C238.131 35.6664 238.842 36.1824 239.636 36.5402C240.491 36.9176 241.419 37.1062 242.355 37.0921C243.477 37.115 244.587 36.8573 245.582 36.3428C246.577 35.7929 247.499 35.122 248.327 34.3459L252.64 38.6928ZM277.305 42.8251H270.168V40.0341C269.253 41.0321 268.147 41.8407 266.914 42.4132C265.653 43.006 264.115 43.3024 262.303 43.3024C261.127 43.3113 259.956 43.1429 258.832 42.8031C257.792 42.491 256.826 41.9756 255.991 41.2873C255.178 40.6094 254.523 39.765 254.071 38.8123C253.583 37.7491 253.343 36.5911 253.367 35.4238V35.3294C253.335 34.0683 253.601 32.8172 254.144 31.6759C254.648 30.6673 255.389 29.7936 256.306 29.1286C257.3 28.4222 258.421 27.9089 259.609 27.6159C260.997 27.2673 262.424 27.0992 263.856 27.1159C265.02 27.1017 266.182 27.1981 267.327 27.4036C268.307 27.5939 269.272 27.8518 270.216 28.1725V27.7307C270.216 26.1921 269.747 25.0269 268.809 24.2344C267.871 23.4419 266.478 23.0417 264.634 23.0331C263.37 23.0175 262.107 23.1383 260.869 23.3932C259.705 23.657 258.561 24.0025 257.446 24.427L255.602 18.8505C257.047 18.2327 258.541 17.7318 260.068 17.3527C261.915 16.9366 263.806 16.7428 265.701 16.7757C269.747 16.7757 272.69 17.7529 274.53 19.7074C276.37 21.6619 277.295 24.3854 277.305 27.8777V42.8251ZM270.312 33.7436V32.4503C269.618 32.1462 268.894 31.9126 268.153 31.7529C267.315 31.5716 266.46 31.483 265.603 31.4888C264.018 31.4888 262.772 31.793 261.864 32.4024C261.425 32.6884 261.07 33.0823 260.832 33.5454C260.594 34.0085 260.482 34.525 260.506 35.044V35.1415C260.485 35.5874 260.576 36.0315 260.77 36.4342C260.965 36.8368 261.257 37.1855 261.621 37.449C262.365 37.9939 263.336 38.2659 264.535 38.2659C266.283 38.2659 267.682 37.8492 268.736 37.0174C269.242 36.634 269.65 36.1367 269.924 35.5666C270.198 34.9965 270.331 34.37 270.312 33.7389V33.7436ZM307.31 42.8251H299.929V39.1197C299.041 40.3183 297.927 41.3357 296.649 42.116C295.373 42.9006 293.762 43.2929 291.818 43.2953C290.302 43.2953 288.802 43.0012 287.402 42.4281C285.971 41.8465 284.681 40.9707 283.617 39.8588C282.472 38.6532 281.573 37.2399 280.971 35.6966C280.272 33.8785 279.93 31.9453 279.962 30.0005V29.9061C279.93 27.9603 280.272 26.0278 280.971 24.2093C281.568 22.6637 282.457 21.2451 283.592 20.0298C284.644 18.9132 285.928 18.0356 287.356 17.4573C288.772 16.882 290.29 16.5884 291.821 16.5933C293.795 16.5933 295.422 16.9785 296.702 17.7474C297.918 18.4647 299.008 19.3728 299.929 20.4362V7.72874H307.31V42.8251ZM300.037 29.9879V29.8936C300.051 28.902 299.88 27.9164 299.533 26.9862C299.224 26.1563 298.763 25.3902 298.173 24.7266C297.62 24.112 296.942 23.6208 296.182 23.2855C295.409 22.9529 294.574 22.7812 293.731 22.7812C292.887 22.7812 292.052 22.9529 291.279 23.2855C290.513 23.6238 289.826 24.1143 289.26 24.7266C288.66 25.3821 288.191 26.1446 287.878 26.9736C287.527 27.9114 287.355 28.906 287.373 29.9061V30.0005C287.359 30.9926 287.53 31.9787 287.878 32.9095C288.189 33.7393 288.658 34.5023 289.26 35.1572C289.826 35.77 290.513 36.2611 291.279 36.5999C292.052 36.9325 292.887 37.1042 293.731 37.1042C294.574 37.1042 295.409 36.9325 296.182 36.5999C296.942 36.2639 297.62 35.7722 298.173 35.1572C298.762 34.4973 299.223 33.7353 299.533 32.9095C299.882 31.9747 300.053 30.984 300.037 29.9879ZM335.676 30.6625C335.676 31.0139 335.676 31.319 335.651 31.576C335.625 31.8331 335.61 32.135 335.578 32.488H317.467C317.823 34.1525 318.559 35.4096 319.676 36.2603C320.793 37.111 322.177 37.5355 323.829 37.5339C324.96 37.5531 326.084 37.3406 327.129 36.9097C328.236 36.4029 329.254 35.7216 330.141 34.8923L334.346 38.5906C333.139 40.0799 331.613 41.2865 329.879 42.1238C328.131 42.9729 326.076 43.3975 323.713 43.3975C321.863 43.4145 320.027 43.0884 318.299 42.436C316.682 41.8264 315.211 40.8909 313.978 39.6889C312.757 38.4921 311.791 37.0647 311.137 35.4914C310.443 33.7732 310.1 31.9357 310.128 30.0854V29.9879C310.118 28.2154 310.439 26.4563 311.073 24.7989C311.672 23.2193 312.571 21.7675 313.721 20.5219C314.898 19.2549 316.333 18.2488 317.931 17.5695C319.53 16.8903 321.255 16.5533 322.994 16.5807C325.163 16.5807 327.042 16.9659 328.627 17.7348C330.161 18.4638 331.511 19.5223 332.58 20.8333C333.645 22.1576 334.437 23.6766 334.909 25.3037C335.416 27.0121 335.671 28.7842 335.666 30.565L335.675 30.6625H335.676ZM328.488 27.9155C328.262 26.2786 327.679 24.9569 326.74 23.9498C325.802 22.9435 324.553 22.4403 322.994 22.4442C321.442 22.4442 320.188 22.9435 319.232 23.9427C318.277 24.9412 317.654 26.2731 317.363 27.9375L328.489 27.9155H328.488ZM378.352 42.8133H370.974V28.4532C370.974 26.7236 370.6 25.4177 369.856 24.5348C369.111 23.6526 368.037 23.2108 366.637 23.2092C365.244 23.2092 364.151 23.6495 363.357 24.53C362.563 25.4106 362.169 26.7181 362.174 28.4532V42.8212H354.795V28.454C354.795 26.7243 354.422 25.4185 353.677 24.5355C352.932 23.6534 351.865 23.2116 350.474 23.21C349.081 23.21 347.988 23.6503 347.194 24.5308C346.4 25.4114 346.005 26.7188 346.006 28.454V42.822H338.635V17.0595H346.014V20.713C346.44 20.1626 346.903 19.6398 347.399 19.15C347.905 18.6492 348.468 18.2066 349.074 17.8292C349.716 17.4318 350.41 17.1241 351.137 16.9148C351.966 16.6827 352.824 16.5699 353.685 16.5799C355.234 16.5396 356.766 16.9041 358.128 17.6366C359.373 18.3399 360.379 19.3941 361.017 20.665C362.05 19.3987 363.338 18.3597 364.8 17.6145C366.282 16.9052 367.912 16.5508 369.558 16.5799C372.311 16.5799 374.464 17.381 376.016 18.9825C377.568 20.5841 378.345 22.9387 378.348 26.0466L378.352 42.8125V42.8133ZM407 17.0595L396.988 43.4368C396.574 44.5953 396.053 45.7138 395.433 46.7782C394.949 47.617 394.334 48.3752 393.612 49.0252C392.955 49.5985 392.181 50.0244 391.342 50.2737C390.395 50.5446 389.413 50.6742 388.428 50.6581C387.213 50.6778 386.002 50.5162 384.836 50.1785C383.802 49.8593 382.808 49.4238 381.873 48.8805L384.351 43.594C384.85 43.8892 385.378 44.1311 385.928 44.3158C386.435 44.4966 386.969 44.5933 387.507 44.6027C388.041 44.6311 388.572 44.506 389.036 44.2427C389.492 43.8978 389.852 43.4431 390.081 42.9218L379.896 17.0595H387.717L393.63 34.6014L399.308 17.0595H407Z" fill="#005EEC"/>
</svg>
