<svg width="456" height="668" viewBox="0 0 456 668" fill="none" xmlns="http://www.w3.org/2000/svg">
<g clip-path="url(#clip0_265_167)">
<path d="M291.599 604.671L284.068 648.835L262.235 650.947L269.801 601.625L291.599 604.671Z" fill="#FFEEE3"/>
<path d="M287.062 645.79C286.612 644.232 284.989 643.644 283.814 644.578C281.569 646.447 277.527 648.697 271.758 647.901C265.747 647.105 263.605 643.436 262.811 640.875C262.396 639.525 261.118 638.798 259.978 639.317L219.111 656.485C216.831 657.523 215.034 659.565 214.102 662.126C213.203 664.549 214.758 667.214 217.038 667.249L283.987 667.664C286.474 667.664 288.478 665.31 288.34 662.438L287.752 648.455C287.752 648.212 287.718 648.005 287.649 647.762L287.062 645.79Z" fill="#1F252A"/>
<path d="M379.859 401.468H388.771V661.849H379.859V401.468Z" fill="#2A272D"/>
<path d="M399.162 347.924L335.322 465.395L294.938 628.588H258.286L284.437 447.224L399.162 347.924Z" fill="#232322"/>
<path d="M346.486 397.626H426.286C437.72 397.626 447.013 388.35 447.013 376.859C447.013 365.403 437.755 356.092 426.286 356.092H346.486C335.051 356.092 325.759 365.403 325.759 376.859C325.759 388.35 335.051 397.626 346.486 397.626Z" fill="#178C8C"/>
<path d="M346.005 397.626H422.696V405.31H346.005V397.626Z" fill="#2A272D"/>
<path d="M346.005 598.649H422.696V606.333H346.005V598.649Z" fill="#2A272D"/>
<path d="M388.463 135.169C403.836 133.3 418.414 142.611 424.286 156.94C429.261 169.019 433.406 186.533 428.985 206.849C415.512 269.046 423.561 312.068 423.561 312.068H350.566L350.843 227.374C350.843 227.374 345.799 217.51 343.07 204.6C339.235 186.533 340.687 184.179 351.223 168.189L373.643 140.776C373.608 140.776 378.618 136.346 388.463 135.169Z" fill="#178C8C"/>
<path d="M255.694 195.185C250.823 185.425 239.008 181.479 229.266 186.359C219.524 191.239 215.586 203.076 220.457 212.837C225.328 222.597 237.143 226.543 246.884 221.663C256.626 216.817 260.564 204.945 255.694 195.185Z" fill="#FFEEE3"/>
<path d="M251.38 189.475L288.482 224.778L274.387 240.492L245.473 215.675L251.38 189.475Z" fill="#FFEEE3"/>
<path d="M413.474 189.958L346.352 292.166C343.761 296.077 338.441 297.011 334.676 294.173L253.667 230.419L270.076 202.211L332.741 250.182L376.545 169.018C382.383 156.835 397.894 153.132 408.603 161.3C417.516 168.084 419.623 180.613 413.474 189.958Z" fill="#178C8C"/>
<path d="M384.245 150.64C388.494 150.605 393.02 148.84 396.371 147.109C399.688 145.413 401.76 141.917 401.725 138.179L401.034 69.5107L371.084 69.6492L371.774 137.453C371.809 145.24 377.405 150.674 384.245 150.64Z" fill="#FFEEE3"/>
<path d="M371.575 118.417L383.943 100.869C383.943 100.869 391.509 120.909 371.645 127.07L371.575 118.417Z" fill="#F2C09E"/>
<path d="M344.592 69.7877C344.696 90.2431 361.312 106.718 381.729 106.614C402.145 106.51 418.589 89.8623 418.485 69.407C418.381 48.9517 401.765 32.4767 381.349 32.5806C360.967 32.6844 344.523 49.3324 344.592 69.7877Z" fill="#FFEEE3"/>
<path d="M368.951 118.625C378.623 118.59 386.465 110.664 386.396 100.973L386.292 75.6374L344.631 69.7881L344.734 94.6045C344.803 107.93 355.616 118.694 368.951 118.625Z" fill="#FFEEE3"/>
<path d="M345.737 78.0596L337.722 90.0005C336.582 91.9387 338.068 94.3269 340.451 94.3269L349.813 96.0575L345.737 78.0596Z" fill="#FFEEE3"/>
<path d="M386.244 85.7789L370.526 85.2251C370.526 85.2251 369.179 71.5533 366.104 68.2652C363.03 64.9771 361.475 50.3715 361.475 50.3715C361.475 50.3715 368.902 59.4743 371.079 68.8886L338.157 68.0576C338.157 68.0576 333.251 28.047 383.1 26.1087C432.984 24.1705 431.602 71.4495 421.791 80.8292C413.984 88.3052 401.341 106.65 401.341 106.65C401.341 106.65 401.928 86.3327 386.244 85.7789Z" fill="#4C1827"/>
<path d="M374.85 80.9327C374.642 86.782 379.202 91.6622 385.006 91.8699C390.844 92.0775 395.715 87.5088 395.957 81.6941C396.164 75.8448 391.604 70.9649 385.801 70.7226C379.963 70.515 375.091 75.0833 374.85 80.9327Z" fill="#FFEEE3"/>
<path d="M405.317 20.9859C403.728 34.1036 413.021 46.01 426.079 47.6367C439.172 49.2288 451.056 39.9184 452.679 26.8007C454.268 13.683 444.976 1.77663 431.883 0.184508C418.79 -1.44223 406.906 7.86821 405.317 20.9859Z" fill="#4C1827"/>
<path d="M400.552 142.922C400.552 142.922 397.685 151.886 357.681 160.228L376.267 134.892L400.552 142.922Z" fill="#FFEEE3"/>
<path d="M384.316 648.697L437.931 667.076H330.771L384.316 648.697Z" fill="#2A272D"/>
<path d="M380.278 538.598L409.607 573.936L388.534 581.966L359.101 544.551L380.278 538.598Z" fill="#FFEEE3"/>
<path d="M408.6 569.126C407.564 567.914 405.836 567.983 405.145 569.333C403.833 571.964 401.069 575.632 395.438 577.225C389.6 578.886 383.209 573.763 381.482 571.721C380.584 570.648 379.098 570.475 378.269 571.445L342.376 596.676C340.718 598.545 339.889 601.141 340.027 603.875C340.165 606.437 342.653 608.271 344.76 607.371L415.785 589.373C418.065 588.37 418.964 585.393 417.685 582.832L410.293 571.271C410.189 571.064 410.051 570.856 409.913 570.683L408.6 569.126Z" fill="#1F252A"/>
<path d="M425.663 312.068C425.663 312.068 447.634 362.184 369.561 388.869L315.601 439.091L399.132 551.162L361.788 564.695L260.363 456.569C252.867 447.813 252.556 434.383 259.637 425.246L350.527 312.033H425.663V312.068Z" fill="#383635"/>
<path d="M0.825836 267.8H267.552V282.683H0.825836V267.8Z" fill="#178C8C"/>
<path d="M201.943 667.145V282.683" stroke="#2A272D" stroke-width="3.04147" stroke-miterlimit="10"/>
<path d="M68.5657 667.145V282.683" stroke="#2A272D" stroke-width="3.04147" stroke-miterlimit="10"/>
<path d="M100.079 259.701H211.038V266.9H100.079V259.701Z" fill="#2A272D"/>
<path d="M100.082 266.935L64.1547 161.854L71.6856 160.055L106.887 260.982L100.082 266.935Z" fill="#2A272D"/>
<path d="M351.492 284.344L405.072 202.73L351.492 284.344Z" fill="#178C8C"/>
<path d="M351.492 284.344L405.072 202.73" stroke="#0E8585" stroke-width="1.04627" stroke-miterlimit="10" stroke-linecap="round" stroke-linejoin="round"/>
<path d="M348.254 220.312L368.705 187.916" stroke="#0E8585" stroke-width="1.04627" stroke-miterlimit="10" stroke-linecap="round" stroke-linejoin="round"/>
</g>
<defs>
<clipPath id="clip0_265_167">
<rect width="456" height="668" fill="white" transform="matrix(-1 0 0 1 456 0)"/>
</clipPath>
</defs>
</svg>
