<svg width="46" height="46" viewBox="0 0 46 46" fill="none" xmlns="http://www.w3.org/2000/svg">
<rect width="46" height="46" rx="23" fill="black" fill-opacity="0.04"/>
<g clip-path="url(#clip0_782_178)">
<path d="M33.0013 15.266L30.5346 12.7993C30.3226 12.5971 30.0409 12.4844 29.748 12.4844C29.455 12.4844 29.1733 12.5971 28.9613 12.7993L26.768 14.9993H15.0013C14.6477 14.9993 14.3085 15.1398 14.0585 15.3898C13.8084 15.6399 13.668 15.979 13.668 16.3326V30.9993C13.668 31.3529 13.8084 31.6921 14.0585 31.9421C14.3085 32.1922 14.6477 32.3326 15.0013 32.3326H29.668C30.0216 32.3326 30.3607 32.1922 30.6108 31.9421C30.8608 31.6921 31.0013 31.3529 31.0013 30.9993V18.8393L33.0013 16.8393C33.2097 16.6306 33.3268 16.3476 33.3268 16.0526C33.3268 15.7576 33.2097 15.4747 33.0013 15.266ZM23.5546 24.4193L20.7613 25.0393L21.428 22.2726L27.7946 15.8926L29.948 18.046L23.5546 24.4193ZM30.668 17.286L28.5146 15.1326L29.748 13.8993L31.9013 16.0526L30.668 17.286Z" fill="#184B4B"/>
</g>
<defs>
<clipPath id="clip0_782_178">
<rect width="24" height="24" fill="white" transform="translate(11 11)"/>
</clipPath>
</defs>
</svg>
