<svg width="28" height="28" viewBox="0 0 28 28" fill="none" xmlns="http://www.w3.org/2000/svg">
<g opacity="0.5" clip-path="url(#clip0_722_260)">
<path d="M14.2886 8.68774C13.6592 8.68865 13.035 8.8019 12.4453 9.02219L19.2898 15.8666C19.5128 15.2696 19.6261 14.6373 19.6242 14C19.618 12.5889 19.0532 11.2378 18.0532 10.2422C17.0533 9.24666 15.6997 8.68773 14.2886 8.68774Z" fill="black"/>
<path d="M26.6691 13.6345C24.048 8.78891 19.4513 5.85669 14.3646 5.85669C12.9796 5.85968 11.604 6.08283 10.2891 6.5178L11.5413 7.7778C12.4636 7.53959 13.412 7.4168 14.3646 7.41224C18.7435 7.41224 22.7257 9.85447 25.098 13.9689C24.227 15.4948 23.0735 16.841 21.6991 17.9356L22.8035 19.04C24.3953 17.7566 25.7171 16.1705 26.6924 14.3734L26.8946 14L26.6691 13.6345Z" fill="black"/>
<path d="M3.78823 4.49556L7.25712 7.96445C5.06404 9.37566 3.27191 11.3285 2.05378 13.6344L1.85156 14L2.05378 14.3733C4.6749 19.2189 9.27156 22.1511 14.3582 22.1511C16.3437 22.1515 18.3035 21.7021 20.0905 20.8367L23.9793 24.7256L25.3404 23.5589L5.11823 3.33667L3.78823 4.49556ZM10.2438 10.9511C9.51612 11.9773 9.17506 13.2279 9.28098 14.4814C9.38691 15.735 9.93299 16.9106 10.8225 17.8001C11.7121 18.6897 12.8877 19.2358 14.1412 19.3417C15.3948 19.4476 16.6454 19.1066 17.6716 18.3789L18.916 19.6233C17.4755 20.2393 15.925 20.5568 14.3582 20.5567C9.97934 20.5567 5.99712 18.1144 3.6249 14C4.76362 11.9844 6.40312 10.2967 8.38489 9.1L10.2438 10.9511Z" fill="black"/>
</g>
<defs>
<clipPath id="clip0_722_260">
<rect width="28" height="28" fill="white"/>
</clipPath>
</defs>
</svg>
