<svg width="46" height="46" viewBox="0 0 46 46" fill="none" xmlns="http://www.w3.org/2000/svg">
<circle cx="23" cy="23" r="23" fill="#F5F5F5"/>
<path d="M34.6142 30.8169C34.6142 31.0394 34.5258 31.2528 34.3684 31.4102C34.211 31.5676 33.9976 31.656 33.7751 31.656H28.0692C27.8823 32.3528 27.4708 32.9686 26.8983 33.4077C26.3259 33.8469 25.6245 34.0849 24.903 34.0849C24.1815 34.0849 23.4802 33.8469 22.9077 33.4077C22.3353 32.9686 21.9237 32.3528 21.7368 31.656H13.0774C12.8548 31.656 12.6414 31.5676 12.484 31.4102C12.3267 31.2528 12.2383 31.0394 12.2383 30.8169C12.2383 30.5943 12.3267 30.3809 12.484 30.2235C12.6414 30.0662 12.8548 29.9778 13.0774 29.9778H21.7368C21.9237 29.2809 22.3353 28.6651 22.9077 28.226C23.4802 27.7868 24.1815 27.5488 24.903 27.5488C25.6245 27.5488 26.3259 27.7868 26.8983 28.226C27.4708 28.6651 27.8823 29.2809 28.0692 29.9778H33.7751C33.9976 29.9778 34.211 30.0662 34.3684 30.2235C34.5258 30.3809 34.6142 30.5943 34.6142 30.8169ZM34.6142 16.0376C34.6142 16.2601 34.5258 16.4736 34.3684 16.6309C34.211 16.7883 33.9976 16.8767 33.7751 16.8767H31.034C30.8471 17.5736 30.4356 18.1893 29.8631 18.6285C29.2907 19.0676 28.5893 19.3056 27.8678 19.3056C27.1463 19.3056 26.445 19.0676 25.8726 18.6285C25.3001 18.1893 24.8885 17.5736 24.7016 16.8767H13.0774C12.9672 16.8767 12.8581 16.855 12.7563 16.8128C12.6545 16.7706 12.562 16.7088 12.484 16.6309C12.4061 16.553 12.3443 16.4605 12.3022 16.3587C12.26 16.2569 12.2383 16.1478 12.2383 16.0376C12.2383 15.9274 12.26 15.8183 12.3022 15.7165C12.3443 15.6147 12.4061 15.5222 12.484 15.4443C12.562 15.3663 12.6545 15.3045 12.7563 15.2624C12.8581 15.2202 12.9672 15.1985 13.0774 15.1985H24.7016C24.8885 14.5016 25.3001 13.8859 25.8726 13.4467C26.445 13.0076 27.1463 12.7695 27.8678 12.7695C28.5893 12.7695 29.2907 13.0076 29.8631 13.4467C30.4356 13.8859 30.8471 14.5016 31.034 15.1985H33.7751C33.8857 15.197 33.9955 15.2177 34.0979 15.2593C34.2004 15.3009 34.2935 15.3627 34.3717 15.4409C34.45 15.5191 34.5117 15.6122 34.5534 15.7147C34.595 15.8172 34.6157 15.927 34.6142 16.0376ZM34.6142 23.4216C34.6157 23.5322 34.595 23.642 34.5534 23.7445C34.5117 23.847 34.45 23.9401 34.3717 24.0183C34.2935 24.0965 34.2004 24.1583 34.0979 24.1999C33.9955 24.2416 33.8857 24.2622 33.7751 24.2607H20.6852C20.4983 24.9576 20.0867 25.5733 19.5143 26.0125C18.9418 26.4517 18.2405 26.6897 17.519 26.6897C16.7975 26.6897 16.0962 26.4517 15.5237 26.0125C14.9513 25.5733 14.5397 24.9576 14.3528 24.2607H13.0774C12.8548 24.2607 12.6414 24.1723 12.484 24.015C12.3267 23.8576 12.2383 23.6442 12.2383 23.4216C12.2383 23.1991 12.3267 22.9857 12.484 22.8283C12.6414 22.6709 12.8548 22.5825 13.0774 22.5825H14.3528C14.5397 21.8857 14.9513 21.2699 15.5237 20.8308C16.0962 20.3916 16.7975 20.1536 17.519 20.1536C18.2405 20.1536 18.9418 20.3916 19.5143 20.8308C20.0867 21.2699 20.4983 21.8857 20.6852 22.5825H33.7751C33.9976 22.5825 34.211 22.6709 34.3684 22.8283C34.5258 22.9857 34.6142 23.1991 34.6142 23.4216Z" fill="#184B4B"/>
</svg>
