<svg width="46" height="46" viewBox="0 0 46 46" fill="none" xmlns="http://www.w3.org/2000/svg">
<rect width="46" height="46" rx="23" fill="#F5F5F5"/>
<g clip-path="url(#clip0_782_187)">
<path d="M33.5008 26.75C31.4383 26.75 29.7508 25.0625 29.7508 23H15.0508V30.95C17.0758 32.975 19.8883 34.25 23.0008 34.25C27.9133 34.25 32.0758 31.1 33.6133 26.75H33.5008Z" fill="#ED4C5C"/>
<path d="M33.5008 19.25H33.6133C32.0758 14.9 27.9133 11.75 23.0008 11.75C19.8883 11.75 17.0758 13.025 15.0508 15.05V23H29.7508C29.7508 20.9375 31.4383 19.25 33.5008 19.25Z" fill="#699635"/>
<path d="M33.6133 19.25H15.0508V26.75H33.6133C34.0258 25.5875 34.2508 24.3125 34.2508 23C34.2508 21.6875 34.0258 20.4125 33.6133 19.25Z" fill="#F9F9F9"/>
<path d="M15.05 15.0508C13.025 17.0758 11.75 19.8883 11.75 23.0008C11.75 26.1133 13.025 28.9258 15.05 30.9508L19.25 26.7508V19.2508L15.05 15.0508Z" fill="#3E4347"/>
</g>
<defs>
<clipPath id="clip0_782_187">
<rect width="24" height="24" fill="white" transform="translate(11 11)"/>
</clipPath>
</defs>
</svg>
