<svg width="182" height="288" viewBox="0 0 182 288" fill="none" xmlns="http://www.w3.org/2000/svg">
<g opacity="0.7">
<path opacity="0.7" fill-rule="evenodd" clip-rule="evenodd" d="M16.6548 83.1488C26.422 82.6422 38.5022 88.3436 39.5439 98.9607C40.3008 106.675 40.0668 114.367 41.238 122.07C42.1745 128.226 44.1556 134.135 46.8578 139.743C49.4563 145.135 54.8457 149.726 56.2472 155.486C57.1408 159.157 56.6407 164.321 55.4087 167.911C53.9106 172.276 54.7069 171.931 57.6924 175.594C63.5426 182.772 68.8111 190.134 72.5364 198.707C77.9022 211.055 81.4208 225.489 79.429 239.006C79.1757 240.722 78.8752 246.882 76.5114 247.313C73.8714 247.795 75.1063 244.272 75.2472 243.133C76.1451 235.872 76.9435 229.526 75.8596 222.151C71.6793 193.697 51.2671 174.951 37.9756 150.802C37.2451 149.556 35.7027 146.59 34.6302 144.634C32.9368 141.545 31.2347 135.669 28.9425 133.378C24.6255 129.064 28.5947 137.738 29.4354 139.393C30.4992 141.488 31.669 143.714 32.7593 145.549C37.7459 154.058 43.3121 163.344 48.4618 172.115C26.188 177.189 10.5013 150.411 4.52375 132.806C-0.401347 118.302 -6.29372 84.3901 16.6548 83.1488Z" fill="#69A1AC"/>
<path opacity="0.7" fill-rule="evenodd" clip-rule="evenodd" d="M147.568 56.2134C131.24 57.5091 120.758 68.2836 115.878 83.3536C113.248 91.4746 112.946 99.8174 111.485 108.164C109.287 120.72 104.556 130.236 95.3116 139.182C92.4484 141.952 90.3378 144.796 88.8383 147.84C85.8606 150.878 83.2686 154.317 81.3641 158.521C78.9316 163.889 78.2433 170.331 81.0514 175.683C81.8069 177.123 83.6907 180.011 85.6431 181.323C78.3335 196.891 74.3141 213.942 74.767 230.971C75.041 241.249 75.5425 251.533 76.1285 261.8C76.2859 264.556 77.1837 269.109 78.5316 264.485C79.7658 260.256 78.2183 253.618 78.0752 249.201C77.3783 227.679 76.7831 208.111 85.6417 188.005C86.571 185.897 87.5562 183.807 88.5814 181.733C88.6422 181.698 88.6981 181.656 88.7546 181.615C88.7932 181.645 88.829 181.677 88.8683 181.707C88.9334 181.59 89.0236 181.451 89.128 181.296C89.4221 180.992 89.6789 180.608 89.9236 180.181C90.7091 179.092 91.5984 177.812 91.6035 177.111C91.6035 177.106 91.6006 177.098 91.6006 177.092C97.0845 168.14 103.366 159.681 109.782 151.387C109.734 151.448 116.742 141.906 115.659 147.182C115.136 149.726 109.982 154.568 107.9 157.262C103.294 163.253 97.8864 170.846 93.3928 178.188C92.7882 178.536 91.934 180.241 91.3159 181.513C90.9746 182.157 90.6562 182.806 90.3436 183.372C106.267 188.632 118.654 178.035 127.1 165.709C127.11 165.694 127.119 165.679 127.129 165.665C129.699 162.26 132.332 158.878 135.622 156.185C141.109 151.693 146.986 150.9 153.457 148.689C171.103 142.66 178.605 119.792 180.987 102.824C183.676 83.6806 170.526 54.3261 147.568 56.2134Z" fill="#89C5CC"/>
<path opacity="0.7" fill-rule="evenodd" clip-rule="evenodd" d="M115.315 2.60534C98.5564 20.0464 90.4597 44.2383 84.0494 66.9814C76.8892 92.3824 72.1595 118.175 71.9777 144.585C71.859 161.937 71.3868 179.396 72.3999 196.727C72.759 202.882 73.3728 209.049 74.348 215.137C74.4288 215.638 76.6116 229.233 78.7 226.065C79.8876 224.264 76.4621 211.962 76.2039 209.913C74.748 198.372 74.4095 186.747 74.4803 175.123C74.597 155.984 74.0332 136.944 75.9727 117.876C76.2618 115.029 76.4907 112.039 77.1668 109.254C77.8851 106.293 76.9701 107.586 79.3089 106.413C81.5818 105.274 84.3899 105.436 86.748 104.007C96.1003 98.3356 100.884 83.7678 104.608 74.2095C108.867 63.2797 111.456 51.6238 113.523 40.1209C115.042 31.6701 116.127 23.2701 116.741 14.7099C116.935 12.012 116.946 9.19098 117.476 6.53813C117.619 5.82269 118.335 4.55707 118.31 3.92319C118.255 2.58174 117.445 1.79332 117.379 0.666504C116.677 1.29752 115.989 1.94427 115.315 2.60534Z" fill="#89C5CC"/>
<path opacity="0.7" fill-rule="evenodd" clip-rule="evenodd" d="M23.937 234.987C23.937 263.831 47.3198 287.214 76.1642 287.214C105.009 287.214 128.391 263.831 128.391 234.987" fill="#89C5CC"/>
<path opacity="0.7" fill-rule="evenodd" clip-rule="evenodd" d="M111.955 189.259C124.881 188.306 139.316 198.734 145.551 209.586C150.578 218.335 149.731 229.825 146.626 239.12C144.547 245.343 140.01 254.216 132.443 254.303C122.977 254.411 122.52 242.71 122.337 235.871C122.094 226.777 120.945 218.856 113.779 212.657C112.895 211.892 111.966 211.176 111.038 210.46C110.214 209.824 109.391 209.188 108.597 208.519C108.471 208.412 108.342 208.305 108.215 208.198C105.681 206.068 103.02 203.831 102.696 200.321C102.227 195.234 105.098 194.318 109.482 195.263C109.624 195.294 110.008 195.439 110.53 195.637C112.77 196.486 117.547 198.297 116.644 196.132C116.303 195.317 115.06 194.67 113.491 194.186C109.432 193.744 104.59 193.232 103.198 193.538C88.177 196.834 82.3283 217.641 80.7751 230.861C80.6077 232.287 80.4725 233.719 80.3537 235.153H77.5942C77.786 231.691 78.0385 228.234 78.6173 224.81C80.8316 211.715 87.7535 192.483 102.935 190.357C103.495 190.279 105.556 190.265 108.051 190.412C109.234 189.751 110.559 189.351 111.955 189.259Z" fill="#69A1AC"/>
</g>
</svg>
