<svg width="32" height="32" viewBox="0 0 32 32" fill="none" xmlns="http://www.w3.org/2000/svg">
<path d="M7.77627 10.3683V9.07222C7.77627 4.77756 11.2578 1.29605 15.5524 1.29605C19.8471 1.29605 23.3286 4.77756 23.3286 9.07222V10.3683H25.9207C26.6365 10.3683 27.2167 10.9485 27.2167 11.6643V27.2166C27.2167 27.9324 26.6365 28.5127 25.9207 28.5127H5.18421C4.46844 28.5127 3.88818 27.9324 3.88818 27.2166V11.6643C3.88818 10.9485 4.46844 10.3683 5.18421 10.3683H7.77627ZM24.6246 12.9603H6.48024V25.9206H24.6246V12.9603ZM14.2564 20.3897C13.4816 19.9415 12.9604 19.1039 12.9604 18.1444C12.9604 16.7128 14.1208 15.5524 15.5524 15.5524C16.984 15.5524 18.1445 16.7128 18.1445 18.1444C18.1445 19.1039 17.6232 19.9415 16.8485 20.3897V23.3285H14.2564V20.3897ZM10.3683 10.3683H20.7366V9.07222C20.7366 6.20912 18.4155 3.88811 15.5524 3.88811C12.6893 3.88811 10.3683 6.20912 10.3683 9.07222V10.3683Z" fill="#1C1C1C"/>
</svg>
