<svg width="24" height="28" viewBox="0 0 24 28" fill="none" xmlns="http://www.w3.org/2000/svg">
<path d="M4.10464 9.51263V8.2166C4.10464 3.92194 7.58615 0.44043 11.8808 0.44043C16.1755 0.44043 19.657 3.92194 19.657 8.2166V9.51263H22.249C22.9648 9.51263 23.5451 10.0929 23.5451 10.8087V26.361C23.5451 27.0768 22.9648 27.657 22.249 27.657H1.51258C0.796811 27.657 0.216553 27.0768 0.216553 26.361V10.8087C0.216553 10.0929 0.796811 9.51263 1.51258 9.51263H4.10464ZM20.953 12.1047H2.80861V25.065H20.953V12.1047ZM10.5848 19.534C9.81002 19.0859 9.28875 18.2483 9.28875 17.2888C9.28875 15.8572 10.4492 14.6967 11.8808 14.6967C13.3124 14.6967 14.4729 15.8572 14.4729 17.2888C14.4729 18.2483 13.9516 19.0859 13.1768 19.534V22.4729H10.5848V19.534ZM6.6967 9.51263H17.0649V8.2166C17.0649 5.35349 14.7439 3.03249 11.8808 3.03249C9.0177 3.03249 6.6967 5.35349 6.6967 8.2166V9.51263Z" fill="#1C1C1C"/>
</svg>
