<svg width="46" height="46" viewBox="0 0 46 46" fill="none" xmlns="http://www.w3.org/2000/svg">
<rect width="46" height="46" rx="23" fill="black" fill-opacity="0.04"/>
<path d="M23.0004 13.3984C24.4501 13.3993 25.8808 13.7284 27.1852 14.3612C28.4895 14.994 29.6336 15.914 30.5316 17.0522C31.4295 18.1903 32.0581 19.5171 32.37 20.9329C32.6819 22.3486 32.6691 23.8167 32.3326 25.2268C31.9961 26.6369 31.3446 27.9525 30.427 29.0749C29.5093 30.1973 28.3494 31.0972 27.0343 31.7072C25.7191 32.3172 24.2829 32.6215 22.8334 32.5971C21.3839 32.5727 19.9587 32.2203 18.6648 31.5664L18.5196 31.4884L14.1456 32.5804C14.0614 32.6016 13.9736 32.6043 13.8883 32.5882C13.803 32.5722 13.7222 32.5378 13.6515 32.4875C13.5808 32.4372 13.5218 32.3721 13.4786 32.2968C13.4355 32.2215 13.4092 32.1377 13.4016 32.0512V31.9528L13.4184 31.8532L14.5104 27.4804L14.4348 27.3364C13.887 26.2549 13.5491 25.0794 13.4388 23.872L13.4088 23.4136L13.4004 22.9984C13.4004 20.4524 14.4118 18.0106 16.2122 16.2102C18.0125 14.4099 20.4543 13.3984 23.0004 13.3984ZM23.6004 24.1984H20.0004L19.8924 24.208C19.7541 24.2331 19.6289 24.3059 19.5388 24.4138C19.4487 24.5217 19.3993 24.6578 19.3993 24.7984C19.3993 24.939 19.4487 25.0752 19.5388 25.1831C19.6289 25.291 19.7541 25.3638 19.8924 25.3888L20.0004 25.3984H23.6004L23.7084 25.3888C23.8467 25.3638 23.9719 25.291 24.062 25.1831C24.1521 25.0752 24.2015 24.939 24.2015 24.7984C24.2015 24.6578 24.1521 24.5217 24.062 24.4138C23.9719 24.3059 23.8467 24.2331 23.7084 24.208L23.6004 24.1984ZM26.0004 20.5984H20.0004L19.8924 20.608C19.7541 20.6331 19.6289 20.7059 19.5388 20.8138C19.4487 20.9217 19.3993 21.0578 19.3993 21.1984C19.3993 21.339 19.4487 21.4752 19.5388 21.5831C19.6289 21.691 19.7541 21.7638 19.8924 21.7888L20.0004 21.7984H26.0004L26.1084 21.7888C26.2467 21.7638 26.3719 21.691 26.462 21.5831C26.5521 21.4752 26.6015 21.339 26.6015 21.1984C26.6015 21.0578 26.5521 20.9217 26.462 20.8138C26.3719 20.7059 26.2467 20.6331 26.1084 20.608L26.0004 20.5984Z" fill="#184B4B"/>
</svg>
