<svg width="18" height="19" viewBox="0 0 18 19" fill="none" xmlns="http://www.w3.org/2000/svg">
<path d="M1.41432 3.85946C1.1015 4.0605 0.840309 4.33429 0.652363 4.65817C0.464417 4.98205 0.355114 5.34672 0.333496 5.722L0.333496 12.9054C0.355114 13.2807 0.464417 13.6454 0.652363 13.9693C0.840309 14.2932 1.1015 14.5669 1.41432 14.768L7.76153 18.373C8.09798 18.5404 8.46768 18.6274 8.84235 18.6274C9.21702 18.6274 9.58673 18.5404 9.92318 18.373L16.2769 14.7678C16.5897 14.5667 16.8508 14.293 17.0388 13.9691C17.2267 13.6453 17.3361 13.2807 17.3577 12.9054V5.72178C17.3361 5.34653 17.2267 4.98191 17.0388 4.65807C16.8508 4.33423 16.5897 4.06048 16.2769 3.85946L9.92967 0.254434C9.59322 0.0870313 9.22352 0 8.84885 0C8.47418 0 8.10447 0.0870313 7.76802 0.254434L1.41432 3.85923V3.85946Z" fill="#14BF96"/>
<path d="M15.3664 7.53125C11.8422 7.53125 9.20913 10.4977 9.20913 14.1361V14.2892H8.50165V14.1361C8.50165 10.4977 5.88133 7.54444 2.33114 7.53125V8.19645C2.32419 9.54055 2.72205 10.8547 3.47139 11.9627C4.22074 13.0707 5.28575 13.9196 6.52365 14.3956C7.27696 14.676 8.07288 14.8201 8.87521 14.8211C9.68381 14.82 10.4861 14.676 11.246 14.3956C12.4822 13.9177 13.5452 13.0681 14.2932 11.9603C15.0412 10.8525 15.4384 9.53934 15.4318 8.19622C15.3989 7.98358 15.3859 7.7573 15.3664 7.53125Z" fill="white"/>
<path d="M8.8488 7.81055C9.93405 7.81055 10.8138 6.91719 10.8138 5.81518C10.8138 4.71318 9.93405 3.81982 8.8488 3.81982C7.76355 3.81982 6.88379 4.71318 6.88379 5.81518C6.88379 6.91719 7.76355 7.81055 8.8488 7.81055Z" fill="white"/>
</svg>
