<svg width="141" height="23" viewBox="0 0 141 23" fill="none" xmlns="http://www.w3.org/2000/svg">
<path fill-rule="evenodd" clip-rule="evenodd" d="M12.0335 17.6082L4.90016 22.0665L6.6835 14.0415L1.3335 8.6915L8.46683 7.79984L12.0335 0.666504L15.6002 7.79984L22.7335 8.6915L17.3835 14.0415L19.1668 22.0665L12.0335 17.6082Z" fill="#EDC90E" stroke="#DAC34A" stroke-width="1.33333" stroke-linecap="round" stroke-linejoin="round"/>
<path fill-rule="evenodd" clip-rule="evenodd" d="M41.3665 17.6082L34.2332 22.0665L36.0165 14.0415L30.6665 8.6915L37.7998 7.79984L41.3665 0.666504L44.9332 7.79984L52.0665 8.6915L46.7165 14.0415L48.4998 22.0665L41.3665 17.6082Z" fill="#EDC90E" stroke="#DAC34A" stroke-width="1.33333" stroke-linecap="round" stroke-linejoin="round"/>
<path fill-rule="evenodd" clip-rule="evenodd" d="M100.033 17.6082L92.9002 22.0665L94.6835 14.0415L89.3335 8.6915L96.4668 7.79984L100.033 0.666504L103.6 7.79984L110.733 8.6915L105.383 14.0415L107.167 22.0665L100.033 17.6082Z" fill="#EDC90E" stroke="#DAC34A" stroke-width="1.33333" stroke-linecap="round" stroke-linejoin="round"/>
<path fill-rule="evenodd" clip-rule="evenodd" d="M129.367 17.6082L122.233 22.0665L124.017 14.0415L118.667 8.6915L125.8 7.79984L129.367 0.666504L132.933 7.79984L140.067 8.6915L134.717 14.0415L136.5 22.0665L129.367 17.6082Z" fill="#EDC90E" stroke="#DAC34A" stroke-width="1.33333" stroke-linecap="round" stroke-linejoin="round"/>
<path fill-rule="evenodd" clip-rule="evenodd" d="M70.7 17.6082L63.5667 22.0665L65.35 14.0415L60 8.6915L67.1333 7.79984L70.7 0.666504L74.2667 7.79984L81.4 8.6915L76.05 14.0415L77.8333 22.0665L70.7 17.6082Z" fill="#EDC90E" stroke="#DAC34A" stroke-width="1.33333" stroke-linecap="round" stroke-linejoin="round"/>
</svg>
